<svg xmlns="http://www.w3.org/2000/svg" viewBox="0 0 1200 760"><rect width="1200" height="760" fill="#050302"/><radialGradient id="r" cx="50%" cy="50%" r="75%"><stop offset="0" stop-color="#3f2708"/><stop offset=".6" stop-color="#070404"/><stop offset="1" stop-color="#020202"/></radialGradient><rect width="1200" height="760" fill="url(#r)"/><g opacity=".42" fill="none" stroke="#d7a11f" stroke-width="20" stroke-linecap="round"><path d="M470 610C310 475 287 250 438 65M730 610c160-135 183-360 32-545"/></g><g fill="#d7a11f" opacity=".35"><ellipse cx="414" cy="470" rx="28" ry="72" transform="rotate(-42 414 470)"/><ellipse cx="362" cy="365" rx="28" ry="72" transform="rotate(-62 362 365)"/><ellipse cx="355" cy="255" rx="28" ry="72" transform="rotate(-84 355 255)"/><ellipse cx="397" cy="150" rx="28" ry="72" transform="rotate(-110 397 150)"/><ellipse cx="786" cy="470" rx="28" ry="72" transform="rotate(42 786 470)"/><ellipse cx="838" cy="365" rx="28" ry="72" transform="rotate(62 838 365)"/><ellipse cx="845" cy="255" rx="28" ry="72" transform="rotate(84 845 255)"/><ellipse cx="803" cy="150" rx="28" ry="72" transform="rotate(110 803 150)"/></g><text x="64" y="104" fill="#f4efe6" font-family="Arial Black,Arial" font-size="58" letter-spacing="3">HISTORY</text></svg>