<svg xmlns="http://www.w3.org/2000/svg" viewBox="0 0 1200 760"><rect width="1200" height="760" fill="#030303"/><radialGradient id="r" cx="55%" cy="45%" r="70%"><stop offset="0" stop-color="#20200a"/><stop offset=".58" stop-color="#070707"/><stop offset="1" stop-color="#020202"/></radialGradient><rect width="1200" height="760" fill="url(#r)"/><g opacity=".44" fill="none" stroke="#d7a11f" stroke-width="12"><rect x="120" y="140" width="960" height="510" rx="28"/><line x1="600" y1="140" x2="600" y2="650"/><circle cx="600" cy="395" r="88"/><rect x="120" y="270" width="150" height="250"/><rect x="930" y="270" width="150" height="250"/></g><g fill="none" stroke="#f4efe6" stroke-width="12"><circle cx="315" cy="255" r="26"/><circle cx="405" cy="405" r="26"/><circle cx="315" cy="535" r="26"/><circle cx="780" cy="275" r="26"/><circle cx="880" cy="405" r="26"/><circle cx="780" cy="535" r="26"/></g><g opacity=".72" fill="none" stroke="#d7a11f" stroke-width="10" stroke-linecap="round" stroke-dasharray="18 16"><path d="M345 265c105 45 135 87 72 128"/><path d="M438 405c150 0 250-57 325-120"/><path d="M345 528c166-72 338-53 510-118"/></g><text x="64" y="104" fill="#f4efe6" font-family="Arial Black,Arial" font-size="58" letter-spacing="3">TACTICAL</text></svg>