<svg xmlns="http://www.w3.org/2000/svg" viewBox="0 0 1200 760"><defs><radialGradient id="r" cx="72%" cy="38%" r="80%"><stop offset="0" stop-color="#55350a"/><stop offset=".55" stop-color="#0c0605"/><stop offset="1" stop-color="#020202"/></radialGradient></defs><rect width="1200" height="760" fill="url(#r)"/><g opacity=".48" fill="none" stroke="#d7a11f" stroke-width="24" stroke-linecap="round" stroke-linejoin="round"><path d="M130 480c95-166 252-270 440-286 154-13 280 24 402 112 60 43 101 98 118 164-78-44-163-65-252-60-100 5-190 39-270 99-68 52-136 77-223 72-96-7-167-42-215-101z"/><path d="M955 322l101-154 31 190M337 560l-66 198M565 544l-20 206M793 474l88 234M500 210L390 78M630 200l70-144"/></g><g opacity=".13" stroke="#f4efe6" stroke-width="2"><circle cx="295" cy="215" r="190" fill="none"/><circle cx="295" cy="215" r="260" fill="none"/><circle cx="295" cy="215" r="330" fill="none"/></g><text x="64" y="104" fill="#f4efe6" font-family="Arial Black,Arial" font-size="58" letter-spacing="3">CLUB</text></svg>