<svg xmlns="http://www.w3.org/2000/svg" viewBox="0 0 1200 760"><defs><radialGradient id="r" cx="72%" cy="35%" r="70%"><stop offset="0" stop-color="#6f1118"/><stop offset=".42" stop-color="#160507"/><stop offset="1" stop-color="#030303"/></radialGradient><linearGradient id="g" x1="0" x2="1"><stop offset="0" stop-color="#d7a11f"/><stop offset="1" stop-color="#5a0b12"/></linearGradient></defs><rect width="1200" height="760" fill="url(#r)"/><g opacity=".38" fill="none" stroke="#d7a11f" stroke-width="20" stroke-linecap="round"><path d="M790 132h280M750 210h360M815 288h230M850 288v300M935 288v300M1020 288v300M790 588h280M750 660h360"/><path d="M810 105c80-48 184-48 264 0"/></g><g opacity=".18" stroke="#f4efe6" stroke-width="2"><path d="M0 602h1200M0 532h1200M0 462h1200"/><path d="M120 0v760M250 0v760M380 0v760M510 0v760"/></g><circle cx="190" cy="180" r="84" fill="none" stroke="url(#g)" stroke-width="18" opacity=".55"/><text x="64" y="104" fill="#f4efe6" font-family="Arial Black,Arial" font-size="58" letter-spacing="3">EDITORIAL</text></svg>