<svg xmlns="http://www.w3.org/2000/svg" viewBox="0 0 620 620"><path d="M238 520C118 420 100 250 214 110M382 520c120-100 138-270 24-410" fill="none" stroke="#D7A11F" stroke-width="16" stroke-linecap="round"/><g fill="#D7A11F"><ellipse cx="198" cy="424" rx="22" ry="54" transform="rotate(-42 198 424)"/><ellipse cx="160" cy="348" rx="22" ry="54" transform="rotate(-62 160 348)"/><ellipse cx="156" cy="268" rx="22" ry="54" transform="rotate(-84 156 268)"/><ellipse cx="186" cy="190" rx="22" ry="54" transform="rotate(-110 186 190)"/><ellipse cx="422" cy="424" rx="22" ry="54" transform="rotate(42 422 424)"/><ellipse cx="460" cy="348" rx="22" ry="54" transform="rotate(62 460 348)"/><ellipse cx="464" cy="268" rx="22" ry="54" transform="rotate(84 464 268)"/><ellipse cx="434" cy="190" rx="22" ry="54" transform="rotate(110 434 190)"/></g></svg>