<svg xmlns="http://www.w3.org/2000/svg" viewBox="0 0 760 760"><path d="M292 642C148 520 128 315 262 142M468 642c144-122 164-327 30-500" fill="none" stroke="#D7A11F" stroke-width="15" stroke-linecap="round" opacity=".7"/><g fill="#D7A11F" opacity=".55"><ellipse cx="250" cy="520" rx="23" ry="62" transform="rotate(-42 250 520)"/><ellipse cx="204" cy="430" rx="23" ry="62" transform="rotate(-62 204 430)"/><ellipse cx="198" cy="335" rx="23" ry="62" transform="rotate(-84 198 335)"/><ellipse cx="235" cy="244" rx="23" ry="62" transform="rotate(-110 235 244)"/><ellipse cx="510" cy="520" rx="23" ry="62" transform="rotate(42 510 520)"/><ellipse cx="556" cy="430" rx="23" ry="62" transform="rotate(62 556 430)"/><ellipse cx="562" cy="335" rx="23" ry="62" transform="rotate(84 562 335)"/><ellipse cx="525" cy="244" rx="23" ry="62" transform="rotate(110 525 244)"/></g></svg>