<svg xmlns="http://www.w3.org/2000/svg" viewBox="0 0 900 650"><path d="M72 382c82-135 205-218 350-231 126-11 229 20 329 91 50 36 84 82 98 136-64-36-133-53-206-49-82 4-155 32-221 81-55 42-111 63-181 59-79-6-138-34-169-87z" fill="none" stroke="#D7A11F" stroke-width="18" stroke-linecap="round" stroke-linejoin="round" opacity=".7"/><path d="M735 255l82-126 25 155M246 452l-54 162M432 440l-16 168M618 384l71 191" fill="none" stroke="#D7A11F" stroke-width="18" stroke-linecap="round" opacity=".7"/></svg>