<svg xmlns="http://www.w3.org/2000/svg" viewBox="0 0 1800 1000">
<defs><linearGradient id="g" x1="0" x2="1"><stop offset="0" stop-color="#020202"/><stop offset=".45" stop-color="#2b110d"/><stop offset="1" stop-color="#020202"/></linearGradient><filter id="grain"><feTurbulence type="fractalNoise" baseFrequency=".8" numOctaves="2"/><feComponentTransfer><feFuncA type="table" tableValues="0 .12"/></feComponentTransfer></filter></defs>
<rect width="1800" height="1000" fill="url(#g)"/>
<g opacity=".24" fill="none" stroke="#d7a11f" stroke-width="20" stroke-linecap="round">
<path d="M230 765h1335"/>
<path d="M360 765V390M500 765V330M640 765V370M1180 765V360M1320 765V320M1460 765V390"/>
<path d="M305 390h395M1110 360h415"/>
<path d="M255 315h495M1060 285h515"/>
<path d="M820 765c80-180 175-285 295-315"/>
</g>
<g opacity=".16" fill="none" stroke="#f4efe6" stroke-width="10"><path d="M410 330c75-46 145-46 210 0M1210 305c75-44 145-44 210 0"/></g>
<rect width="1800" height="1000" filter="url(#grain)"/>
</svg>