<svg xmlns="http://www.w3.org/2000/svg" viewBox="0 0 700 520"><path d="M74 300c54-95 144-154 252-163 88-7 160 13 230 64 35 26 58 58 68 95-45-25-93-37-144-35-58 3-109 22-155 57-39 30-78 45-128 42-55-4-96-24-123-60z" fill="none" stroke="#D7A11F" stroke-width="18" stroke-linecap="round" stroke-linejoin="round"/><path d="M545 210l58-88 18 108M193 346l-38 114M324 336l-11 119M454 294l50 134M286 146l-63-76M360 140l40-82" fill="none" stroke="#D7A11F" stroke-width="18" stroke-linecap="round"/><circle cx="554" cy="226" r="8" fill="#D7A11F"/></svg>